<mxfile host="65bd71144e">
    <diagram id="Sn6y9prhUlCMN-MI1kPr" name="Page-1">
        <mxGraphModel dx="746" dy="431" grid="1" gridSize="10" guides="1" tooltips="1" connect="1" arrows="1" fold="1" page="1" pageScale="1" pageWidth="850" pageHeight="1100" math="0" shadow="0">
            <root>
                <mxCell id="0"/>
                <mxCell id="1" parent="0"/>
                <mxCell id="2" value="Navbar" style="rounded=0;whiteSpace=wrap;html=1;" vertex="1" parent="1">
                    <mxGeometry x="170" y="60" width="400" height="60" as="geometry"/>
                </mxCell>
                <mxCell id="3" value="Announcement" style="rounded=0;whiteSpace=wrap;html=1;" vertex="1" parent="1">
                    <mxGeometry x="170" width="400" height="60" as="geometry"/>
                </mxCell>
                <mxCell id="4" value="Title" style="rounded=0;whiteSpace=wrap;html=1;" vertex="1" parent="1">
                    <mxGeometry x="170" y="120" width="120" height="60" as="geometry"/>
                </mxCell>
                <mxCell id="5" value="Filters (e.g. color)" style="rounded=0;whiteSpace=wrap;html=1;" vertex="1" parent="1">
                    <mxGeometry x="290" y="120" width="120" height="60" as="geometry"/>
                </mxCell>
                <mxCell id="6" value="Sorting Filter" style="rounded=0;whiteSpace=wrap;html=1;" vertex="1" parent="1">
                    <mxGeometry x="410" y="120" width="160" height="60" as="geometry"/>
                </mxCell>
                <mxCell id="7" value="" style="rounded=0;whiteSpace=wrap;html=1;" vertex="1" parent="1">
                    <mxGeometry x="170" y="180" width="400" height="160" as="geometry"/>
                </mxCell>
            </root>
        </mxGraphModel>
    </diagram>
</mxfile>